<svg xmlns="http://www.w3.org/2000/svg" viewBox="0 0 100 60" width="100" height="60">
  <!-- Simple anvil silhouette matching the reference image -->
  <g fill="#4a5568">
    <!-- Horn (pointed end on left) with serrated edge -->
    <path d="M 5 20
             L 5 19
             L 6 19
             L 6 18
             L 7 18
             L 7 17
             L 8 17
             L 8 16
             L 9 16
             L 9 15
             L 10 15
             L 10 14
             L 11 14
             L 11 13
             L 12 13
             L 12 12
             L 13 12
             L 13 11
             L 14 11
             L 14 10
             L 15 10
             L 15 9
             L 16 9
             L 16 8
             L 17 8
             L 17 7
             L 18 7
             L 18 6
             L 19 6
             L 19 5
             L 20 5
             L 35 5
             L 35 10
             L 70 10
             L 85 10
             L 95 15
             L 95 20
             L 90 25
             L 85 25
             L 80 25
             L 80 30
             L 75 35
             L 70 38
             L 65 40
             L 60 42
             L 55 43
             L 50 44
             L 45 43
             L 40 42
             L 35 40
             L 30 38
             L 25 35
             L 20 30
             L 20 25
             L 15 25
             L 10 25
             L 5 20
             Z" />
    
    <!-- Base -->
    <path d="M 35 42
             L 65 42
             L 65 50
             L 60 50
             L 60 55
             L 40 55
             L 40 50
             L 35 50
             Z" />
    
    <!-- Feet -->
    <rect x="37" y="53" width="8" height="5" rx="1"/>
    <rect x="55" y="53" width="8" height="5" rx="1"/>
  </g>
</svg>