<svg xmlns="http://www.w3.org/2000/svg" viewBox="0 0 100 100" width="100" height="100">
  <!-- Anvil base -->
  <rect x="20" y="50" width="60" height="30" rx="2" fill="#2c3e50"/>
  
  <!-- Anvil horn (left point) -->
  <path d="M 20 50 L 10 55 L 10 60 L 20 60 Z" fill="#34495e"/>
  
  <!-- Anvil horn (right point) -->
  <path d="M 80 50 L 90 55 L 90 60 L 80 60 Z" fill="#34495e"/>
  
  <!-- Anvil face (top working surface) -->
  <rect x="15" y="45" width="70" height="8" rx="1" fill="#34495e"/>
  
  <!-- Anvil body gradient effect -->
  <rect x="20" y="53" width="60" height="27" rx="2" fill="url(#anvil-gradient)" opacity="0.8"/>
  
  <!-- Hardy hole (square hole on anvil face) -->
  <rect x="25" y="47" width="6" height="4" fill="#1a252f"/>
  
  <!-- Pritchel hole (round hole on anvil face) -->
  <circle cx="75" cy="49" r="2" fill="#1a252f"/>
  
  <!-- Hammer -->
  <g transform="rotate(-30 50 30)">
    <!-- Hammer handle -->
    <rect x="48" y="15" width="4" height="25" rx="1" fill="#8b4513"/>
    
    <!-- Hammer head -->
    <rect x="44" y="8" width="12" height="8" rx="1" fill="#505050"/>
    
    <!-- Hammer face highlights -->
    <rect x="44" y="8" width="2" height="8" fill="#606060" opacity="0.5"/>
    <rect x="54" y="8" width="2" height="8" fill="#606060" opacity="0.5"/>
  </g>
  
  <!-- Spark effects -->
  <circle cx="55" cy="44" r="1" fill="#ffa500" opacity="0.8">
    <animate attributeName="opacity" values="0.8;0;0.8" dur="2s" repeatCount="indefinite"/>
    <animate attributeName="cy" values="44;40;44" dur="2s" repeatCount="indefinite"/>
  </circle>
  <circle cx="58" cy="43" r="0.8" fill="#ffcc00" opacity="0.6">
    <animate attributeName="opacity" values="0.6;0;0.6" dur="2.5s" repeatCount="indefinite"/>
    <animate attributeName="cx" values="58;62;58" dur="2.5s" repeatCount="indefinite"/>
  </circle>
  <circle cx="52" cy="45" r="0.6" fill="#ffd700" opacity="0.7">
    <animate attributeName="opacity" values="0.7;0;0.7" dur="1.8s" repeatCount="indefinite"/>
    <animate attributeName="cx" values="52;48;52" dur="1.8s" repeatCount="indefinite"/>
  </circle>
  
  <!-- Gradient definitions -->
  <defs>
    <linearGradient id="anvil-gradient" x1="0%" y1="0%" x2="0%" y2="100%">
      <stop offset="0%" style="stop-color:#34495e;stop-opacity:1" />
      <stop offset="100%" style="stop-color:#2c3e50;stop-opacity:1" />
    </linearGradient>
  </defs>
</svg>